<?xml version="1.0" encoding="UTF-8" standalone="no"?>
<svg
   xmlns:dc="http://purl.org/dc/elements/1.1/"
   xmlns:cc="http://creativecommons.org/ns#"
   xmlns:rdf="http://www.w3.org/1999/02/22-rdf-syntax-ns#"
   xmlns:svg="http://www.w3.org/2000/svg"
   xmlns="http://www.w3.org/2000/svg"
   xmlns:sodipodi="http://sodipodi.sourceforge.net/DTD/sodipodi-0.dtd"
   xmlns:inkscape="http://www.inkscape.org/namespaces/inkscape"
   version="1.1"
   id="Capa_1"
   x="0px"
   y="0px"
   viewBox="0 0 271.673 271.673"
   style="enable-background:new 0 0 271.673 271.673;"
   xml:space="preserve"
   sodipodi:docname="menu.svg"
   inkscape:version="1.0.1 (c497b03c, 2020-09-10)"><metadata
   id="metadata882"><rdf:RDF><cc:Work
       rdf:about=""><dc:format>image/svg+xml</dc:format><dc:type
         rdf:resource="http://purl.org/dc/dcmitype/StillImage" /><dc:title></dc:title></cc:Work></rdf:RDF></metadata><defs
   id="defs880">
	

		
	
			
			
			
			
		</defs><sodipodi:namedview
   pagecolor="#ffffff"
   bordercolor="#666666"
   borderopacity="1"
   objecttolerance="10"
   gridtolerance="10"
   guidetolerance="10"
   inkscape:pageopacity="0"
   inkscape:pageshadow="2"
   inkscape:window-width="1680"
   inkscape:window-height="958"
   id="namedview878"
   showgrid="false"
   inkscape:zoom="2.6207978"
   inkscape:cx="133.54712"
   inkscape:cy="118.28459"
   inkscape:window-x="0"
   inkscape:window-y="23"
   inkscape:window-maximized="0"
   inkscape:current-layer="Capa_1"
   inkscape:document-rotation="0" />
<path
   d="M 114.939,0 H 10.449 C 4.678,0 0,4.678 0,10.449 v 104.49 c 0,5.771 4.678,10.449 10.449,10.449 h 104.49 c 5.771,0 10.449,-4.678 10.449,-10.449 V 10.449 C 125.388,4.678 120.71,0 114.939,0 Z"
   id="path833"
   style="fill:#ffaa93;fill-opacity:1;stroke:none" /><path
   d="m 261.224,0 h -104.49 c -5.771,0 -10.449,4.678 -10.449,10.449 v 104.49 c 0,5.771 4.678,10.449 10.449,10.449 h 104.49 c 5.771,0 10.449,-4.678 10.449,-10.449 V 10.449 C 271.673,4.678 266.995,0 261.224,0 Z"
   id="path835"
   style="fill:#ffaa93;fill-opacity:1;stroke:none" /><path
   d="M 114.939,146.286 H 10.449 C 4.678,146.286 0,150.964 0,156.735 v 104.49 c 0,5.771 4.678,10.449 10.449,10.449 h 104.49 c 5.771,0 10.449,-4.678 10.449,-10.449 v -104.49 c 0,-5.771 -4.678,-10.449 -10.449,-10.449 z"
   id="path837"
   style="fill:#ffaa93;fill-opacity:1;stroke:none" /><path
   d="m 261.224,146.286 h -104.49 c -5.771,0 -10.449,4.678 -10.449,10.449 v 104.49 c 0,5.771 4.678,10.449 10.449,10.449 h 104.49 c 5.771,0 10.449,-4.678 10.449,-10.449 v -104.49 c 0,-5.771 -4.678,-10.449 -10.449,-10.449 z"
   id="path839"
   style="fill:#ffaa93;fill-opacity:1;stroke:none" />
<g
   id="g847"
   style="fill:#ffaa93;fill-opacity:1">
</g>
<g
   id="g849"
   style="fill:#ffaa93;fill-opacity:1">
</g>
<g
   id="g851"
   style="fill:#ffaa93;fill-opacity:1">
</g>
<g
   id="g853"
   style="fill:#ffaa93;fill-opacity:1">
</g>
<g
   id="g855"
   style="fill:#ffaa93;fill-opacity:1">
</g>
<g
   id="g857"
   style="fill:#ffaa93;fill-opacity:1">
</g>
<g
   id="g859"
   style="fill:#ffaa93;fill-opacity:1">
</g>
<g
   id="g861"
   style="fill:#ffaa93;fill-opacity:1">
</g>
<g
   id="g863"
   style="fill:#ffaa93;fill-opacity:1">
</g>
<g
   id="g865"
   style="fill:#ffaa93;fill-opacity:1">
</g>
<g
   id="g867"
   style="fill:#ffaa93;fill-opacity:1">
</g>
<g
   id="g869"
   style="fill:#ffaa93;fill-opacity:1">
</g>
<g
   id="g871"
   style="fill:#ffaa93;fill-opacity:1">
</g>
<g
   id="g873"
   style="fill:#ffaa93;fill-opacity:1">
</g>
<g
   id="g875"
   style="fill:#ffaa93;fill-opacity:1">
</g>
</svg>
