<?xml version="1.0" encoding="UTF-8" standalone="no"?>
<svg
   xmlns:dc="http://purl.org/dc/elements/1.1/"
   xmlns:cc="http://creativecommons.org/ns#"
   xmlns:rdf="http://www.w3.org/1999/02/22-rdf-syntax-ns#"
   xmlns:svg="http://www.w3.org/2000/svg"
   xmlns="http://www.w3.org/2000/svg"
   xmlns:sodipodi="http://sodipodi.sourceforge.net/DTD/sodipodi-0.dtd"
   xmlns:inkscape="http://www.inkscape.org/namespaces/inkscape"
   version="1.1"
   width="24"
   height="24"
   viewBox="0 0 24 24"
   id="svg835"
   sodipodi:docname="icon-bed.svg"
   inkscape:version="1.0.1 (c497b03c, 2020-09-10)">
  <metadata
     id="metadata841">
    <rdf:RDF>
      <cc:Work
         rdf:about="">
        <dc:format>image/svg+xml</dc:format>
        <dc:type
           rdf:resource="http://purl.org/dc/dcmitype/StillImage" />
      </cc:Work>
    </rdf:RDF>
  </metadata>
  <defs
     id="defs839" />
  <sodipodi:namedview
     pagecolor="#ffffff"
     bordercolor="#666666"
     borderopacity="1"
     objecttolerance="10"
     gridtolerance="10"
     guidetolerance="10"
     inkscape:pageopacity="0"
     inkscape:pageshadow="2"
     inkscape:window-width="1680"
     inkscape:window-height="956"
     id="namedview837"
     showgrid="false"
     inkscape:zoom="31.125683"
     inkscape:cx="12"
     inkscape:cy="12"
     inkscape:window-x="0"
     inkscape:window-y="23"
     inkscape:window-maximized="1"
     inkscape:current-layer="svg835" />
  <path
     d="M 4.8,3.6 C 4.164,3.6 3.6,3.852 3.108,4.32 2.616,4.788 2.4,5.34 2.4,6 V 9.6 C 1.74,9.6 1.2,9.828 0.72,10.308 0.24,10.788 0,11.364 0,12 v 6 H 1.596 L 2.4,20.4 H 3.6 L 4.404,18 h 15.192 l 0.804,2.4 h 1.2 L 22.404,18 H 24 V 12 C 24,11.364 23.748,10.8 23.28,10.308 22.8,9.828 22.26,9.6 21.6,9.6 V 6 C 21.6,5.34 21.372,4.8 20.892,4.32 20.412,3.84 19.836,3.6 19.2,3.6 M 4.8,6 h 6 v 3.6 h -6 M 13.2,6 h 6 v 3.6 h -6 z"
     id="path833"
     style="stroke-width:1.2;fill:#a0a0a0;fill-opacity:1" />
</svg>
