<?xml version="1.0" encoding="UTF-8" standalone="no"?>
<svg
   xmlns:dc="http://purl.org/dc/elements/1.1/"
   xmlns:cc="http://creativecommons.org/ns#"
   xmlns:rdf="http://www.w3.org/1999/02/22-rdf-syntax-ns#"
   xmlns:svg="http://www.w3.org/2000/svg"
   xmlns="http://www.w3.org/2000/svg"
   xmlns:sodipodi="http://sodipodi.sourceforge.net/DTD/sodipodi-0.dtd"
   xmlns:inkscape="http://www.inkscape.org/namespaces/inkscape"
   enable-background="new 0 0 24 24"
   height="24"
   viewBox="0 0 24 24"
   width="24"
   version="1.1"
   id="svg849"
   sodipodi:docname="icon-bathtub.svg"
   inkscape:version="1.0.1 (c497b03c, 2020-09-10)">
  <metadata
     id="metadata855">
    <rdf:RDF>
      <cc:Work
         rdf:about="">
        <dc:format>image/svg+xml</dc:format>
        <dc:type
           rdf:resource="http://purl.org/dc/dcmitype/StillImage" />
      </cc:Work>
    </rdf:RDF>
  </metadata>
  <defs
     id="defs853" />
  <sodipodi:namedview
     pagecolor="#ffffff"
     bordercolor="#666666"
     borderopacity="1"
     objecttolerance="10"
     gridtolerance="10"
     guidetolerance="10"
     inkscape:pageopacity="0"
     inkscape:pageshadow="2"
     inkscape:window-width="1680"
     inkscape:window-height="1050"
     id="namedview851"
     showgrid="false"
     inkscape:zoom="11.941871"
     inkscape:cx="11.951833"
     inkscape:cy="22.813923"
     inkscape:window-x="0"
     inkscape:window-y="0"
     inkscape:window-maximized="0"
     inkscape:current-layer="svg849"
     inkscape:document-rotation="0" />
  <g
     id="g845"
     style="fill:#a0a0a0;fill-opacity:1"
     transform="matrix(1.2,0,0,1.2,-2.4,-2.4)">
    <g
       id="g839"
       style="fill:#a0a0a0;fill-opacity:1">
      <circle
         cx="7"
         cy="7"
         r="2"
         id="circle837"
         style="fill:#a0a0a0;fill-opacity:1" />
    </g>
    <g
       id="g843"
       style="fill:#a0a0a0;fill-opacity:1">
      <path
         d="M 20,13 V 4.83 C 20,3.27 18.73,2 17.17,2 16.42,2 15.7,2.3 15.17,2.83 L 13.92,4.08 C 13.76,4.03 13.59,4 13.41,4 13.01,4 12.64,4.12 12.33,4.32 l 2.76,2.76 C 15.29,6.77 15.41,6.4 15.41,6 15.41,5.82 15.38,5.66 15.34,5.49 L 16.59,4.24 C 16.74,4.09 16.95,4 17.17,4 17.63,4 18,4.37 18,4.83 V 13 h -6.85 c -0.3,-0.21 -0.57,-0.45 -0.82,-0.72 L 8.93,10.73 C 8.74,10.52 8.5,10.35 8.24,10.23 7.93,10.08 7.59,10 7.24,10 6,10.01 5,11.01 5,12.25 V 13 H 2 v 6 c 0,1.1 0.9,2 2,2 0,0.55 0.45,1 1,1 h 14 c 0.55,0 1,-0.45 1,-1 1.1,0 2,-0.9 2,-2 v -6 z"
         id="path841"
         style="fill:#a0a0a0;fill-opacity:1" />
    </g>
  </g>
</svg>
