<?xml version="1.0" encoding="UTF-8" standalone="no"?>
<svg
   xmlns:dc="http://purl.org/dc/elements/1.1/"
   xmlns:cc="http://creativecommons.org/ns#"
   xmlns:rdf="http://www.w3.org/1999/02/22-rdf-syntax-ns#"
   xmlns:svg="http://www.w3.org/2000/svg"
   xmlns="http://www.w3.org/2000/svg"
   xmlns:sodipodi="http://sodipodi.sourceforge.net/DTD/sodipodi-0.dtd"
   xmlns:inkscape="http://www.inkscape.org/namespaces/inkscape"
   version="1.1"
   width="24"
   height="24"
   viewBox="0 0 24 24"
   id="svg835"
   sodipodi:docname="icon-wifi.svg"
   inkscape:version="1.0.1 (c497b03c, 2020-09-10)">
  <metadata
     id="metadata841">
    <rdf:RDF>
      <cc:Work
         rdf:about="">
        <dc:format>image/svg+xml</dc:format>
        <dc:type
           rdf:resource="http://purl.org/dc/dcmitype/StillImage" />
      </cc:Work>
    </rdf:RDF>
  </metadata>
  <defs
     id="defs839" />
  <sodipodi:namedview
     pagecolor="#ffffff"
     bordercolor="#666666"
     borderopacity="1"
     objecttolerance="10"
     gridtolerance="10"
     guidetolerance="10"
     inkscape:pageopacity="0"
     inkscape:pageshadow="2"
     inkscape:window-width="1260"
     inkscape:window-height="787"
     id="namedview837"
     showgrid="false"
     inkscape:zoom="24.276412"
     inkscape:cx="12"
     inkscape:cy="12"
     inkscape:window-x="0"
     inkscape:window-y="23"
     inkscape:window-maximized="0"
     inkscape:current-layer="svg835" />
  <path
     d="m 12,22 4,-5.333333 c -1.111111,-0.833334 -2.5,-1.333334 -4,-1.333334 -1.5,0 -2.888889,0.5 -4,1.333334 L 12,22 M 12,2 C 7.5,2 3.3444444,3.4888889 0,6 L 2,8.6666667 C 4.7777778,6.5777778 8.2444444,5.3333333 12,5.3333333 c 3.755556,0 7.222222,1.2444445 10,3.3333334 L 24,6 C 20.655556,3.4888889 16.5,2 12,2 m 0,6.6666667 c -3,0 -5.7666667,0.9888893 -8,2.6666663 L 6,14 c 1.6666667,-1.255556 3.744444,-2 6,-2 2.255556,0 4.333333,0.744444 6,2 l 2,-2.666667 C 17.766667,9.655556 15,8.6666667 12,8.6666667 Z"
     id="path833"
     style="stroke-width:1.11111;fill:#a0a0a0;fill-opacity:1" />
</svg>
