<?xml version="1.0" encoding="utf-8"?>
<!-- Generator: Adobe Illustrator 24.0.0, SVG Export Plug-In . SVG Version: 6.00 Build 0)  -->
<svg version="1.1" xmlns="http://www.w3.org/2000/svg" xmlns:xlink="http://www.w3.org/1999/xlink" x="0px" y="0px"
	 viewBox="0 0 512 512" style="enable-background:new 0 0 512 512;" xml:space="preserve">
<style type="text/css">
	.st0{fill:#00695B;}
	.st1{fill:#F68820;}
	.st2{fill:#353744;}
	.st3{fill:#808080;}
	.st4{fill:#55525B;}
	.st5{fill:#009888;}
	.st6{fill:#52C9B8;}
	.st7{fill:#FBBE18;}
	.st8{fill:#FFFFFF;}
	.st9{fill:#1B74D6;}
	.st10{fill:#1E8AFF;}
	.st11{fill:#FFD6D4;}
	.st12{fill:#FFAA93;}
	.st13{fill:#FF7865;}
	.st14{opacity:0.8;fill:#96DAEA;}
</style>
<g id="Layer_1">
	<circle class="st0" cx="256" cy="256" r="209.6"/>
	<circle class="st1" cx="256" cy="256" r="182.5"/>
	<g>
		<path class="st2" d="M379.9,314.7V112.6c0-14.4-11.7-26.1-26.1-26.1h39.1c14.4,0,26.1,11.7,26.1,26.1v202.1
			c0,10.8-8.8,19.6-19.6,19.6C388.6,334.2,379.9,325.5,379.9,314.7z"/>
	</g>
	<path class="st3" d="M412.4,334.2h-13c-2.3,0-4.5-0.5-6.5-1.2v27.3c0,19.2-10.5,36.1-26.1,45.1v7.1c0,14.4-11.7,26.1-26.1,26.1
		c43.1,0,78.2-35.1,78.2-78.2V333C416.9,333.8,414.7,334.2,412.4,334.2z"/>
	<g>
		<path class="st2" d="M392.9,73.5c-21.6,0-39.1,17.5-39.1,39.1v91.3h13v-91.3c0-14.4,11.7-26.1,26.1-26.1S419,98.2,419,112.6v202.1
			c0,10.8-8.8,19.6-19.6,19.6h13c10.8,0,19.6-8.8,19.6-19.6V112.6C432,91,414.5,73.5,392.9,73.5z"/>
	</g>
	<g>
		<g>
			<path class="st2" d="M275.6,203.9v-91.3c0-14.4-11.7-26.1-26.1-26.1h39.1c14.4,0,26.1,11.7,26.1,26.1v91.3H275.6z"/>
		</g>
		<g>
			<path class="st4" d="M288.6,73.5h-39.1c-21.6,0-39.1,17.5-39.1,39.1v91.3h39.1v-91.3C249.5,91,267,73.5,288.6,73.5z"/>
		</g>
		<g>
			<path class="st2" d="M288.6,73.5c-21.6,0-39.1,17.5-39.1,39.1v91.3h13v-91.3c0-14.4,11.7-26.1,26.1-26.1s26.1,11.7,26.1,26.1
				v91.3h13v-91.3C327.7,91,310.2,73.5,288.6,73.5z"/>
		</g>
	</g>
	<g>
		<g>
			<path class="st2" d="M379.9,314.7V112.6c0-14.4-11.7-26.1-26.1-26.1h39.1c14.4,0,26.1,11.7,26.1,26.1v202.1
				c0,10.8-8.8,19.6-19.6,19.6C388.6,334.2,379.9,325.5,379.9,314.7z"/>
		</g>
		<g>
			<path class="st4" d="M392.9,73.5h-39.1c-21.6,0-39.1,17.5-39.1,39.1v91.3h39.1v-91.3C353.8,91,371.3,73.5,392.9,73.5z"/>
		</g>
	</g>
	<g>
		<path class="st5" d="M262.5,99.6h-65.2C139.7,99.6,93,146.2,93,203.9v208.6c0,14.4,11.7,26.1,26.1,26.1h221.6
			c14.4,0,26.1-11.7,26.1-26.1V203.9C366.8,146.2,320.1,99.6,262.5,99.6z"/>
	</g>
	<g>
		<path class="st6" d="M197.3,99.6C139.7,99.6,93,146.2,93,203.9v208.6c0,14.4,11.7,26.1,26.1,26.1h156.4
			c14.4,0,26.1-11.7,26.1-26.1V203.9C301.6,146.2,254.9,99.6,197.3,99.6z"/>
	</g>
	<g>
		<path class="st1" d="M249.5,243H106.1C91.7,243,80,254.6,80,269v117.3c0,14.4,11.7,26.1,26.1,26.1h143.4
			c14.4,0,26.1-11.7,26.1-26.1V269C275.6,254.6,263.9,243,249.5,243z"/>
	</g>
	<g>
		<path class="st7" d="M210.4,243H106.1C91.7,243,80,254.6,80,269v117.3c0,14.4,11.7,26.1,26.1,26.1h104.3
			c14.4,0,26.1-11.7,26.1-26.1V269C236.4,254.6,224.8,243,210.4,243z"/>
	</g>
	<g>
		<path class="st1" d="M80,282.1h156.4v13H80V282.1z"/>
	</g>
	<g>
		<path class="st8" d="M239.7,177.8h-88c-3.6,0-6.5-2.9-6.5-6.5s2.9-6.5,6.5-6.5h88c3.6,0,6.5,2.9,6.5,6.5S243.3,177.8,239.7,177.8z
			"/>
	</g>
	<g>
		<path class="st4" d="M327.7,203.9v19.6c0,3.6,2.9,6.5,6.5,6.5s6.5-2.9,6.5-6.5v-19.6c0-57.6-46.7-104.3-104.3-104.3h-13
			C281,99.6,327.7,146.2,327.7,203.9z"/>
	</g>
</g>
<g id="Layer_2">
	<path class="st9" d="M391.2,436.7l57.4,57.4c9.9,9.9,26,9.9,36,0L420,407.9L391.2,436.7z"/>
	<path class="st10" d="M427.2,400.7l57.4,57.4c9.9,9.9,9.9,26,0,36c-2,2-11.7-4.5-21.6-14.4l-57.4-57.4L427.2,400.7z"/>
	<path class="st11" d="M398.5,429.5l-36-36l21.6-21.6l36,36L398.5,429.5z"/>
	<path class="st12" d="M344.5,404.4l22,9.4c1.9,0.8,4.1,0.4,5.6-1.1l31.1-31.1c1.5-1.5,1.9-3.7,1.1-5.6l-9.4-22L344.5,404.4z"/>
	<path class="st13" d="M384,443.9c4,4,10.4,4,14.4,0l14.4-14.4l-14.4-14.4L384,429.5C380.1,433.5,380.1,439.9,384,443.9z"/>
	<path class="st12" d="M412.8,429.5l21.6-21.6c4-4,4-10.4,0-14.4s-10.4-4-14.4,0l-21.6,21.6c-4,4-4,10.4,0,14.4
		S408.8,433.5,412.8,429.5z"/>
	<path class="st13" d="M282.8,164.5c-70.6,0-127.9,57.2-127.9,127.9s57.2,127.9,127.9,127.9s127.9-57.2,127.9-127.9
		S353.5,164.5,282.8,164.5z M282.8,399.8c-59.4,0-107.5-48.1-107.5-107.5c0-59.4,48.1-107.5,107.5-107.5v0
		c59.4,0,107.5,48.1,107.5,107.5S342.2,399.8,282.8,399.8z"/>
	<path class="st14" d="M282.8,184.8L282.8,184.8c-59.4,0-107.5,48.1-107.5,107.5c0,59.4,48.1,107.5,107.5,107.5
		c59.4,0,107.5-48.1,107.5-107.5S342.2,184.8,282.8,184.8z"/>
</g>
</svg>
